<?xml version="1.0" encoding="UTF-8"?>
<svg width="800px" height="600px" viewBox="0 0 800 600" version="1.1" xmlns="http://www.w3.org/2000/svg" xmlns:xlink="http://www.w3.org/1999/xlink">
    <title>Library Illustration</title>
    <defs>
        <linearGradient x1="0%" y1="0%" x2="100%" y2="100%" id="linearGradient-1">
            <stop stop-color="#FFFFFF" stop-opacity="0.2" offset="0%"></stop>
            <stop stop-color="#FFFFFF" stop-opacity="0" offset="100%"></stop>
        </linearGradient>
        <filter id="shadow" x="-20%" y="-20%" width="140%" height="140%">
            <feGaussianBlur in="SourceAlpha" stdDeviation="10" />
            <feOffset dx="0" dy="10" result="offsetblur" />
            <feComponentTransfer>
                <feFuncA type="linear" slope="0.3" />
            </feComponentTransfer>
            <feMerge>
                <feMergeNode />
                <feMergeNode in="SourceGraphic" />
            </feMerge>
        </filter>
    </defs>
    <g id="Library-Illustration" stroke="none" stroke-width="1" fill="none" fill-rule="evenodd">
        <!-- Background Elements -->
        <circle id="Background-Circle-1" fill="#FFFFFF" opacity="0.1" cx="650" cy="150" r="100"></circle>
        <circle id="Background-Circle-2" fill="#FFFFFF" opacity="0.1" cx="150" cy="450" r="80"></circle>
        <circle id="Background-Circle-3" fill="#FFFFFF" opacity="0.05" cx="400" cy="100" r="50"></circle>
        
        <!-- Bookshelf -->
        <g id="Bookshelf" transform="translate(150, 150)" filter="url(#shadow)">
            <rect id="Shelf-Background" fill="#F8F9FA" x="0" y="0" width="500" height="300" rx="10"></rect>
            <rect id="Shelf-Top" fill="#E0E0E0" x="20" y="20" width="460" height="20" rx="5"></rect>
            <rect id="Shelf-Middle" fill="#E0E0E0" x="20" y="140" width="460" height="20" rx="5"></rect>
            <rect id="Shelf-Bottom" fill="#E0E0E0" x="20" y="260" width="460" height="20" rx="5"></rect>
            
            <!-- Top Shelf Books -->
            <rect id="Book-1" fill="#3F51B5" x="40" y="40" width="30" height="100" rx="2"></rect>
            <rect id="Book-2" fill="#F44336" x="70" y="45" width="25" height="95" rx="2"></rect>
            <rect id="Book-3" fill="#4CAF50" x="95" y="40" width="20" height="100" rx="2"></rect>
            <rect id="Book-4" fill="#FF9800" x="115" y="50" width="35" height="90" rx="2"></rect>
            <rect id="Book-5" fill="#9C27B0" x="150" y="45" width="25" height="95" rx="2"></rect>
            <rect id="Book-6" fill="#2196F3" x="175" y="40" width="30" height="100" rx="2"></rect>
            <rect id="Book-7" fill="#607D8B" x="240" y="45" width="40" height="95" rx="2"></rect>
            <rect id="Book-8" fill="#795548" x="280" y="50" width="25" height="90" rx="2"></rect>
            <rect id="Book-9" fill="#673AB7" x="305" y="45" width="30" height="95" rx="2"></rect>
            <rect id="Book-10" fill="#009688" x="370" y="40" width="35" height="100" rx="2"></rect>
            <rect id="Book-11" fill="#FFC107" x="405" y="45" width="25" height="95" rx="2"></rect>
            <rect id="Book-12" fill="#E91E63" x="430" y="50" width="30" height="90" rx="2"></rect>
            
            <!-- Middle Shelf Books -->
            <rect id="Book-13" fill="#673AB7" x="40" y="160" width="25" height="100" rx="2"></rect>
            <rect id="Book-14" fill="#009688" x="65" y="165" width="30" height="95" rx="2"></rect>
            <rect id="Book-15" fill="#FF5722" x="95" y="160" width="35" height="100" rx="2"></rect>
            <rect id="Book-16" fill="#3F51B5" x="165" y="165" width="25" height="95" rx="2"></rect>
            <rect id="Book-17" fill="#4CAF50" x="190" y="170" width="30" height="90" rx="2"></rect>
            <rect id="Book-18" fill="#FFC107" x="220" y="165" width="20" height="95" rx="2"></rect>
            <rect id="Book-19" fill="#9C27B0" x="240" y="160" width="30" height="100" rx="2"></rect>
            <rect id="Book-20" fill="#2196F3" x="305" y="165" width="35" height="95" rx="2"></rect>
            <rect id="Book-21" fill="#F44336" x="340" y="170" width="25" height="90" rx="2"></rect>
            <rect id="Book-22" fill="#607D8B" x="400" y="165" width="30" height="95" rx="2"></rect>
            <rect id="Book-23" fill="#795548" x="430" y="160" width="25" height="100" rx="2"></rect>
        </g>
        
        <!-- Character -->
        <g id="Character" transform="translate(350, 350)" filter="url(#shadow)">
            <!-- Head -->
            <circle id="Head" fill="#FFD3B6" cx="50" cy="30" r="30"></circle>
            <path d="M35,25 C36,23 38,23 39,25" id="Eye-Left" stroke="#333333" stroke-width="2" stroke-linecap="round"></path>
            <path d="M61,25 C62,23 64,23 65,25" id="Eye-Right" stroke="#333333" stroke-width="2" stroke-linecap="round"></path>
            <path d="M45,40 C48,43 52,43 55,40" id="Smile" stroke="#333333" stroke-width="2" stroke-linecap="round"></path>
            <path d="M30,15 C35,5 45,0 50,0 C55,0 65,5 70,15" id="Hair" fill="#333333"></path>
            
            <!-- Body -->
            <rect id="Body" fill="#3F51B5" x="30" y="60" width="40" height="60" rx="5"></rect>
            <rect id="Arm-Left" fill="#3F51B5" x="10" y="70" width="20" height="10" rx="5"></rect>
            <rect id="Arm-Right" fill="#3F51B5" x="70" y="70" width="30" height="10" rx="5"></rect>
            <rect id="Leg-Left" fill="#2C3E50" x="35" y="120" width="10" height="30" rx="5"></rect>
            <rect id="Leg-Right" fill="#2C3E50" x="55" y="120" width="10" height="30" rx="5"></rect>
            
            <!-- Book in Hand -->
            <rect id="Book-In-Hand" fill="#F44336" x="80" y="60" width="25" height="30" rx="2"></rect>
            <rect id="Book-Pages" fill="#FFFFFF" x="82" y="62" width="21" height="26" rx="1"></rect>
            <path d="M85,68 L100,68 M85,74 L100,74 M85,80 L100,80" id="Book-Lines" stroke="#CCCCCC" stroke-width="1"></path>
        </g>
        
        <!-- Floating Books -->
        <g id="Floating-Book-1" transform="translate(100, 200)" filter="url(#shadow)">
            <rect fill="#4CAF50" x="0" y="0" width="40" height="50" rx="3"></rect>
            <rect fill="#FFFFFF" x="3" y="3" width="34" height="44" rx="1"></rect>
            <path d="M8,10 L30,10 M8,20 L30,20 M8,30 L30,30 M8,40 L20,40" stroke="#CCCCCC" stroke-width="1"></path>
        </g>
        
        <g id="Floating-Book-2" transform="translate(600, 250)" filter="url(#shadow)">
            <rect fill="#FF9800" x="0" y="0" width="45" height="55" rx="3"></rect>
            <rect fill="#FFFFFF" x="3" y="3" width="39" height="49" rx="1"></rect>
            <path d="M8,10 L35,10 M8,20 L35,20 M8,30 L35,30 M8,40 L25,40" stroke="#CCCCCC" stroke-width="1"></path>
        </g>
        
        <g id="Floating-Book-3" transform="translate(500, 100)" filter="url(#shadow)">
            <rect fill="#673AB7" x="0" y="0" width="35" height="45" rx="3"></rect>
            <rect fill="#FFFFFF" x="3" y="3" width="29" height="39" rx="1"></rect>
            <path d="M8,10 L25,10 M8,20 L25,20 M8,30 L25,30" stroke="#CCCCCC" stroke-width="1"></path>
        </g>
        
        <!-- Decorative Elements -->
        <circle id="Decorative-Circle-1" fill="#3F51B5" opacity="0.2" cx="100" cy="100" r="20"></circle>
        <circle id="Decorative-Circle-2" fill="#3F51B5" opacity="0.2" cx="700" cy="400" r="30"></circle>
        <circle id="Decorative-Circle-3" fill="#3F51B5" opacity="0.2" cx="400" cy="500" r="25"></circle>
        
        <!-- Overlay Gradient -->
        <rect id="Overlay" fill="url(#linearGradient-1)" x="0" y="0" width="800" height="600"></rect>
    </g>
</svg>
